PathFileType	4	(X/Y/Z)	./resultDataOpenSim/trcMotMarkerGrf/sub10/qtm-13-05.trc
DataRate	CameraRate	NumFrames	NumMarkers	Units	OrigDataRate	OrigDataStartFrame	OrigNumFrames
250.000000	250.000000	11	24	m	250.000000	62	491
Frame#	Time	L.Toe.Tip			R.Toe.Tip			L.Ankle.Lat			R.Ankle.Lat			L.Ankle.Med			R.Ankle.Med			L.Heel			R.Heel			L.Knee.Lat			R.Knee.Lat			L.Knee.Med			R.Knee.Med			L.Thigh.Upper			R.Thigh.Upper			L.ASIS			R.ASIS			V.Sacral			L.Acromium			R.Acromium			C7			L.Elbow			R.Elbow			L.Wrist.Lat			R.Wrist.Lat
		X1	Y1	Z1	X2	Y2	Z2	X3	Y3	Z3	X4	Y4	Z4	X5	Y5	Z5	X6	Y6	Z6	X7	Y7	Z7	X8	Y8	Z8	X9	Y9	Z9	X10	Y10	Z10	X11	Y11	Z11	X12	Y12	Z12	X13	Y13	Z13	X14	Y14	Z14	X15	Y15	Z15	X16	Y16	Z16	X17	Y17	Z17	X18	Y18	Z18	X19	Y19	Z19	X20	Y20	Z20	X21	Y21	Z21	X22	Y22	Z22	X23	Y23	Z23	X24	Y24	Z24

62	0.244	-1.2686151	0.0843429	-0.21622432	-0.73819758	0.039950813	-0.054699916	-1.2799796	0.22224505	-0.24511564	-0.88014394	0.049602303	-0.0237586	-1.2518046	0.21861309	-0.16643767	-0.85934953	0.084054038	-0.10309524	-1.3296217	0.26532925	-0.19666276	-0.92875634	0.028333037	-0.077160045	-0.96789511	0.43083692	-0.26169164	-0.86601154	0.45202121	0.048215267	-0.94782451	0.3880107	-0.15061931	-0.86101227	0.46413786	-0.079940981	-0.96971319	0.80640406	-0.25842204	-0.91171491	0.86235037	0.12154203	-0.89958447	0.91486731	-0.20581406	-0.8538472	0.94549935	0.030762029	-1.075598	0.95109634	-0.052493444	-0.91274539	1.4048015	-0.22365073	-0.91722764	1.3987306	0.096664394	-1.0007751	1.4339755	-0.064759679	-1.0255181	1.0984671	-0.35276014	-1.0655412	1.0935377	0.1522474	-0.88674164	0.89360742	-0.30913802	-1.0213554	0.85701638	0.20006135
63	0.248	-1.2530374	0.084986208	-0.21874605	-0.73841716	0.040010767	-0.054504534	-1.267781	0.22268495	-0.24624645	-0.88071132	0.049666684	-0.023818621	-1.2399977	0.21935923	-0.16744134	-0.85945303	0.084125152	-0.10287352	-1.3188672	0.2643401	-0.19785328	-0.92880269	0.028323945	-0.077174646	-0.95678766	0.43221364	-0.26046656	-0.86552049	0.45216653	0.048653959	-0.93696795	0.3894907	-0.14990318	-0.859991	0.46408258	-0.079536025	-0.96351784	0.80777757	-0.25816001	-0.90784409	0.86310981	0.12182847	-0.89422318	0.91642671	-0.20597736	-0.84976582	0.94649564	0.031380555	-1.0706162	0.95219518	-0.053407395	-0.90759319	1.4059709	-0.2234505	-0.91191387	1.3995937	0.096886306	-0.99559844	1.4349894	-0.064570685	-1.0219817	1.1001377	-0.35225088	-1.0589011	1.0932949	0.15309809	-0.88488531	0.89404481	-0.30964866	-1.0134127	0.85686341	0.19925125
64	0.252	-1.2376103	0.085519543	-0.22098153	-0.73865796	0.040080512	-0.054297867	-1.2554667	0.22289781	-0.24733639	-0.88135534	0.04965926	-0.023752531	-1.2280288	0.21980665	-0.16840442	-0.85959123	0.084202075	-0.10263999	-1.3077284	0.26319496	-0.1992256	-0.92884027	0.028312477	-0.077210005	-0.94625618	0.43349617	-0.25950935	-0.86505544	0.45237461	0.049138224	-0.92623454	0.3909992	-0.14914564	-0.85903194	0.46397616	-0.079107369	-0.95723394	0.80914776	-0.25778263	-0.90389756	0.86387757	0.12215967	-0.88897516	0.9179944	-0.20612563	-0.8455712	0.94751101	0.032051394	-1.0656223	0.95329757	-0.054289238	-0.90247172	1.4071606	-0.22325021	-0.90670101	1.4004584	0.097129675	-0.99041898	1.4359939	-0.064391681	-1.0184589	1.101812	-0.35169169	-1.0524234	1.0929581	0.15344426	-0.88319275	0.89446714	-0.3101459	-1.0048008	0.85676868	0.19854749
65	0.256	-1.2223352	0.085908686	-0.22292557	-0.73892211	0.040156575	-0.054076797	-1.2430037	0.22282457	-0.24837919	-0.88201399	0.049614404	-0.023613021	-1.215844	0.21990499	-0.16933115	-0.8597729	0.084288095	-0.10239448	-1.2962375	0.26188002	-0.20071114	-0.92885897	0.0283009	-0.077293193	-0.93605676	0.43470915	-0.25887423	-0.86458666	0.45263587	0.049672141	-0.91558357	0.39254946	-0.14834748	-0.85810411	0.46384796	-0.078685659	-0.9511023	0.81047837	-0.25749363	-0.89999785	0.86463121	0.12247719	-0.883681	0.91956256	-0.206214	-0.84124402	0.94853057	0.032773906	-1.0605814	0.95446081	-0.055045326	-0.8973281	1.4083579	-0.22303136	-0.90159056	1.401317	0.097383202	-0.98523398	1.4369929	-0.064218114	-1.014933	1.1034968	-0.35104796	-1.0459851	1.0925071	0.15316474	-0.8815987	0.89487065	-0.31062311	-0.99517233	0.85679125	0.19796118
66	0.26	-1.2070153	0.086162443	-0.22473494	-0.73921177	0.040237392	-0.053840514	-1.230359	0.22244051	-0.24938846	-0.88272404	0.049535228	-0.023464453	-1.2034169	0.21966893	-0.17022883	-0.86000228	0.084387929	-0.10213182	-1.2845476	0.26034302	-0.20211659	-0.92886439	0.028290622	-0.077417463	-0.92595574	0.43589341	-0.25841292	-0.86409255	0.45293586	0.050233221	-0.90497361	0.39414045	-0.14750997	-0.8571619	0.46371561	-0.078298824	-0.94529256	0.81174038	-0.2574501	-0.89628756	0.8653521	0.12271426	-0.8783074	0.92111966	-0.20622538	-0.83686439	0.94953709	0.03350737	-1.055507	0.95571256	-0.055640488	-0.8921094	1.4095486	-0.22277465	-0.89655321	1.402156	0.097629062	-0.98004461	1.4379843	-0.064045144	-1.011401	1.1051911	-0.35031342	-1.039215	1.0919143	0.15254587	-0.88003502	0.89526019	-0.31107404	-0.98466078	0.85693033	0.19744451
67	0.264	-1.1914965	0.086308291	-0.22655389	-0.73952126	0.04032459	-0.0535983	-1.2175362	0.2217801	-0.25038682	-0.88366513	0.049367046	-0.023355193	-1.1907614	0.21914402	-0.17110775	-0.86026835	0.084502825	-0.10185023	-1.272778	0.25854635	-0.20335048	-0.92888265	0.028280742	-0.0775305	-0.91585827	0.43707361	-0.25798736	-0.86356563	0.453259	0.050789214	-0.89437584	0.39576101	-0.14663459	-0.85621825	0.46357605	-0.077947081	-0.93968909	0.8129376	-0.25759726	-0.89288694	0.86600215	0.12282142	-0.87290766	0.92266265	-0.20615855	-0.83249785	0.95051747	0.034222023	-1.0504686	0.95699991	-0.056162352	-0.88685097	1.4107323	-0.22249109	-0.89156017	1.4029681	0.097861027	-0.974852	1.4389633	-0.063870326	-1.007873	1.1068826	-0.34950451	-1.0319182	1.0912113	0.15207908	-0.87846145	0.89564829	-0.31149333	-0.97390987	0.85710302	0.19690646
68	0.268	-1.1757929	0.086341604	-0.22839867	-0.73983851	0.040419996	-0.053359857	-1.2045786	0.22090561	-0.25138534	-0.88497148	0.049067854	-0.023296575	-1.1779446	0.21838042	-0.17197739	-0.86055115	0.08462827	-0.10155678	-1.2609246	0.2565061	-0.2045147	-0.92893683	0.028270217	-0.077584932	-0.90579474	0.43825157	-0.25754517	-0.86300938	0.45358547	0.051320815	-0.88377534	0.39741057	-0.14572148	-0.85534756	0.46341944	-0.077607093	-0.93402636	0.81409269	-0.25775786	-0.88981295	0.86653856	0.12279582	-0.86754136	0.92419127	-0.20600973	-0.82816029	0.95146209	0.034907122	-1.0455166	0.95818527	-0.056761274	-0.88170743	1.4119218	-0.22223072	-0.88661149	1.4037591	0.098088225	-0.96965579	1.4399248	-0.063692604	-1.0043585	1.1085597	-0.34864172	-1.0243567	1.0905168	0.15209017	-0.8768721	0.89604241	-0.31187854	-0.96360905	0.85720884	0.1962597
69	0.272	-1.1599901	0.086227133	-0.23021056	-0.74015248	0.040521916	-0.05312487	-1.191542	0.21985275	-0.2523732	-0.88647727	0.048708943	-0.023258973	-1.1650759	0.21742778	-0.17282625	-0.86083594	0.084755733	-0.10126387	-1.2489609	0.2542704	-0.20572236	-0.92902207	0.028258695	-0.077584164	-0.89581868	0.43942033	-0.25708975	-0.86242152	0.45389335	0.051831522	-0.87317437	0.39910563	-0.14477429	-0.8546132	0.46324363	-0.077253965	-0.92815813	0.81521561	-0.25782181	-0.88685479	0.86697172	0.12272937	-0.86222558	0.92569658	-0.2057766	-0.82383934	0.95236216	0.035558888	-1.0406161	0.95911136	-0.057532884	-0.8767993	1.4131226	-0.22203672	-0.88171573	1.4045358	0.098322393	-0.96445644	1.4408634	-0.063511969	-1.0008605	1.1102134	-0.34773527	-1.0169192	1.0899415	0.15258888	-0.87528297	0.89643462	-0.31223134	-0.95390603	0.85722228	0.19550304
70	0.276	-1.1441353	0.085944008	-0.23193944	-0.74045192	0.040625884	-0.052890933	-1.1784727	0.21861469	-0.25332404	-0.88782381	0.048431255	-0.023201878	-1.1523277	0.21631978	-0.17360032	-0.86111198	0.084878473	-0.10098243	-1.2369439	0.25186759	-0.20690599	-0.92911416	0.02824491	-0.077558662	-0.88584365	0.44058717	-0.25663539	-0.86178176	0.45416501	0.052334244	-0.86258052	0.40086103	-0.14380593	-0.85397468	0.46306054	-0.076877272	-0.92210243	0.81629488	-0.25779426	-0.88367947	0.8673659	0.12276206	-0.85690553	0.92716844	-0.20546764	-0.81951864	0.95321101	0.036177716	-1.0356915	0.95973591	-0.058455577	-0.87205211	1.4143211	-0.22189764	-0.87685541	1.4052893	0.098563777	-0.95925634	1.4417726	-0.063329832	-0.99737918	1.1118316	-0.34678327	-1.0097271	1.0895016	0.15337794	-0.87370888	0.89681428	-0.31255845	-0.9444647	0.85718878	0.19470909
71	0.28	-1.1282281	0.085505303	-0.2335665	-0.74071959	0.040728358	-0.052663078	-1.1653745	0.21716716	-0.25421537	-0.88876466	0.048313262	-0.023101103	-1.140003	0.21505848	-0.17421347	-0.86136154	0.084998248	-0.10071987	-1.2249634	0.24926776	-0.20786843	-0.92919848	0.028226204	-0.077520209	-0.87545678	0.4417993	-0.25617277	-0.86106913	0.45438807	0.052830646	-0.85199624	0.40267111	-0.14283505	-0.85327858	0.46289512	-0.076493172	-0.91592537	0.81731357	-0.25772348	-0.88013022	0.86776011	0.12293746	-0.85146364	0.92860554	-0.20509568	-0.81518662	0.95400706	0.03676585	-1.0307097	0.96021865	-0.059397075	-0.86729066	1.4154959	-0.22176956	-0.87199233	1.4059975	0.098797296	-0.95405796	1.4426474	-0.063146429	-0.99391389	1.1134051	-0.34578105	-1.0027007	1.0891645	0.15428466	-0.8721449	0.89718263	-0.31287208	-0.93494906	0.85715182	0.19392157
72	0.284	-1.1122415	0.084937122	-0.23508603	-0.74093827	0.040826581	-0.052449151	-1.1521791	0.21549949	-0.25504701	-0.889163	0.048354997	-0.022940832	-1.1282785	0.21362632	-0.17462178	-0.86156171	0.085122445	-0.1004815	-1.2129993	0.24640452	-0.20855322	-0.92928749	0.028198399	-0.077446531	-0.86394943	0.44314547	-0.25564881	-0.86028439	0.45455558	0.053308174	-0.84143696	0.40451309	-0.14187605	-0.85243772	0.46276375	-0.076143531	-0.90969315	0.81826689	-0.25765119	-0.87627007	0.86812729	0.12317166	-0.84580861	0.93000402	-0.2046663	-0.81083605	0.95475041	0.037318579	-1.025685	0.96078591	-0.060207235	-0.86243024	1.4166331	-0.22162688	-0.86710024	1.4066443	0.099003736	-0.94886299	1.4434843	-0.062959412	-0.99046383	1.1149336	-0.34472928	-0.99576876	1.0889027	0.15529383	-0.87055176	0.89754707	-0.31318374	-0.92524763	0.85712335	0.19311976
